<svg width="14" height="13" viewBox="0 0 14 13" fill="none" xmlns="http://www.w3.org/2000/svg">
<rect width="13.6649" height="12" rx="6" fill="#385898"/>
<path d="M10.3021 8.58252C10.7129 8.58252 11.0631 8.28509 11.1297 7.87981L11.1475 7.77146C11.2323 7.25539 10.8341 6.78641 10.3111 6.78641C9.84296 6.78641 9.46346 6.40691 9.46346 5.93877V5.62136C9.46346 5.12985 9.72085 4.65049 10.5476 4.65049H10.5623C11.018 4.65049 11.3874 4.28108 11.3874 3.8254C11.3874 3.41983 11.0923 3.07416 10.6883 3.03835C10.4479 3.01704 10.1704 3 9.89764 3C8.37672 3 7.38357 3.86044 7.38357 5.41748V5.94145C7.38357 6.40811 7.00527 6.78641 6.53862 6.78641C6.07196 6.78641 5.69366 7.16471 5.69366 7.63136V7.73757C5.69366 8.20422 6.07196 8.58252 6.53862 8.58252C7.00527 8.58252 7.38357 8.96082 7.38357 9.42748V11.8812C7.38357 12.4805 7.82416 13 8.42352 13C9.02287 13 9.46346 12.4805 9.46346 11.8812V9.4212C9.46346 8.95801 9.83895 8.58252 10.3021 8.58252Z" fill="white"/>
</svg>
