<svg width="443" height="110" viewBox="0 0 443 110" fill="none" xmlns="http://www.w3.org/2000/svg">
<path d="M150.085 91.5001H136.903L156.989 33.3182H172.841L192.898 91.5001H179.716L165.142 46.6137H164.687L150.085 91.5001ZM149.261 68.6307H180.398V78.233H149.261V68.6307Z" fill="white"/>
<path d="M203.146 33.3182L217.209 77.5228H217.749L231.839 33.3182H245.476L225.419 91.5001H209.567L189.482 33.3182H203.146Z" fill="white"/>
<path d="M252.479 91.5001V33.3182H291.683V43.4603H264.78V57.3239H289.666V67.466H264.78V81.358H291.797V91.5001H252.479Z" fill="white"/>
<path d="M312.997 33.3182L324.73 53.1478H325.185L336.974 33.3182H350.866L333.111 62.4091L351.264 91.5001H337.116L325.185 71.6421H324.73L312.798 91.5001H298.707L316.918 62.4091L299.048 33.3182H312.997Z" fill="white"/>
<path d="M380.085 91.5001H366.903L386.989 33.3182H402.841L422.898 91.5001H409.716L395.142 46.6137H394.687L380.085 91.5001ZM379.261 68.6307H410.398V78.233H379.261V68.6307Z" fill="#D043B1"/>
<path d="M442.202 33.3182V91.5001H429.901V33.3182H442.202Z" fill="#D043B1"/>
<path fill-rule="evenodd" clip-rule="evenodd" d="M50.9372 0.382908C36.4428 1.46338 22.8424 8.22356 13.4915 18.9955C1.46695 32.8479 -2.80629 51.1009 1.83098 68.8049C3.37481 74.6995 5.63446 79.724 9.04832 84.8535C24.2401 107.681 53.9967 115.844 78.8739 104.01C94.0008 96.8138 105.114 83.0135 108.735 66.9281C109.742 62.455 110.014 59.8235 109.999 54.6814C109.982 48.11 109.254 43.5759 107.247 37.5328C105.667 32.7772 102.656 26.7417 101.298 25.6091C98.7223 23.4603 94.6689 25.3336 94.6689 28.6728C94.6689 29.3098 95.0647 30.2756 96.2695 32.5772C100.45 40.5644 102.18 47.7964 101.914 56.1726C101.686 63.3418 100.177 69.3245 96.998 75.6646C90.9935 87.639 79.6312 96.7324 66.6559 99.9479C62.4293 100.995 59.5983 101.334 55.0886 101.333C45.4408 101.331 37.0744 98.8557 29.1636 93.6634C9.53227 80.7787 2.51178 55.4434 12.7832 34.5504C15.3068 29.4174 18.1142 25.5739 22.2836 21.545C26.2601 17.7024 29.5371 15.3949 34.3605 13.0409C45.1552 7.7728 57.947 6.84613 69.3647 10.5051C73.4172 11.8037 73.5286 11.8697 73.8011 13.1291C74.3194 15.525 75.918 17.5633 78.119 18.6344C79.1537 19.1378 79.5622 19.2108 81.3452 19.2117C83.168 19.2125 83.5241 19.1456 84.6669 18.5894C86.2524 17.8178 87.5831 16.4869 88.3638 14.8917C88.8776 13.8417 88.9608 13.4091 88.9668 11.7521C88.9735 10.0025 88.9109 9.70303 88.2677 8.40826C86.7381 5.3281 83.5722 3.68908 80.1885 4.22527C79.493 4.3354 78.6554 4.56334 78.327 4.73163C77.779 5.01261 77.6095 4.98854 76.2606 4.43829C70.6418 2.14634 64.9563 0.830903 58.6735 0.369487C55.337 0.124294 54.3842 0.125998 50.9372 0.382908ZM46.1029 41.7339C44.7692 44.9302 42.6398 50.0375 41.3711 53.0837C40.1023 56.13 37.8433 61.5535 36.3511 65.1359C34.8588 68.7184 33.638 71.7165 33.638 71.7983C33.638 71.8801 35.1898 71.9208 37.0862 71.8887L40.5347 71.8301L43.2944 65.2263C44.8124 61.5942 47.0719 56.178 48.3155 53.1903C49.5591 50.2026 50.7185 47.4226 50.8917 47.0125L51.2067 46.2669L51.4296 46.8182C51.5521 47.1216 52.9285 50.4288 54.4884 54.1676C57.7914 62.0854 60.1267 67.702 61.1451 70.1791L61.8678 71.9366H65.3579H68.8479L67.2817 68.1554C66.4204 66.0758 64.3367 61.0669 62.6515 57.0247C60.9661 52.9826 58.3121 46.6077 56.7532 42.8585L53.9192 36.0416L51.2237 35.9822L48.528 35.9228L46.1029 41.7339ZM70.1706 53.9359V71.9366H73.1791H76.1877V53.9359V35.9351H73.1791H70.1706V53.9359Z" fill="white"/>
</svg>
