<svg width="177" height="44" viewBox="0 0 177 44" fill="none" xmlns="http://www.w3.org/2000/svg">
<path d="M60.0341 33H54.7614L62.7954 9.72726H69.1364L77.1591 33H71.8864L66.0568 15.0454H65.875L60.0341 33ZM59.7045 23.8523H72.1591V27.6932H59.7045V23.8523Z" fill="black"/>
<path d="M81.2585 9.72726L86.8835 27.4091H87.0994L92.7358 9.72726H98.1903L90.1676 33H83.8267L75.7926 9.72726H81.2585Z" fill="black"/>
<path d="M100.991 33V9.72726H116.673V13.7841H105.912V19.3295H115.866V23.3864H105.912V28.9432H116.719V33H100.991Z" fill="black"/>
<path d="M125.199 9.72726L129.892 17.6591H130.074L134.79 9.72726H140.347L133.244 21.3636L140.506 33H134.847L130.074 25.0568H129.892L125.119 33H119.483L126.767 21.3636L119.619 9.72726H125.199Z" fill="black"/>
<path d="M152.034 33H146.761L154.795 9.72726H161.136L169.159 33H163.886L158.057 15.0454H157.875L152.034 33ZM151.705 23.8523H164.159V27.6932H151.705V23.8523Z" fill="#D043B1"/>
<path d="M176.881 9.72726V33H171.96V9.72726H176.881Z" fill="#D043B1"/>
<path fill-rule="evenodd" clip-rule="evenodd" d="M20.3749 0.0785729C14.5771 0.513842 9.13695 3.23719 5.39662 7.57667C0.586779 13.1572 -1.12252 20.5104 0.732394 27.6425C1.34992 30.0171 2.25378 32.0412 3.61933 34.1077C9.69603 43.3036 21.5987 46.5923 31.5496 41.8247C37.6003 38.9259 42.0455 33.3664 43.4939 26.8864C43.8967 25.0844 44.0055 24.0243 43.9998 21.9528C43.9927 19.3055 43.7015 17.4789 42.8987 15.0445C42.2669 13.1287 41.0625 10.6973 40.5194 10.241C39.4889 9.37532 37.8676 10.13 37.8676 11.4752C37.8676 11.7318 38.0259 12.1209 38.5078 13.0481C40.1799 16.2657 40.872 19.1792 40.7655 22.5535C40.6744 25.4417 40.0709 27.8518 38.7992 30.4059C36.3974 35.2298 31.8525 38.8931 26.6624 40.1885C24.9717 40.6104 23.8393 40.747 22.0354 40.7465C18.1763 40.7456 14.8298 39.7485 11.6654 37.6567C3.81291 32.4661 1.00471 22.2598 5.1133 13.843C6.12271 11.7751 7.24568 10.2268 8.91346 8.60373C10.504 7.05575 11.8148 6.12617 13.7442 5.17788C18.0621 3.0556 23.1788 2.68229 27.7459 4.1563C29.3669 4.67945 29.4114 4.70605 29.5204 5.21341C29.7278 6.1786 30.3672 6.99971 31.2476 7.4312C31.6615 7.63399 31.8249 7.66343 32.5381 7.66377C33.2672 7.66411 33.4096 7.63717 33.8668 7.4131C34.501 7.10226 35.0332 6.56607 35.3455 5.92347C35.551 5.50047 35.5843 5.32617 35.5867 4.65868C35.5894 3.95386 35.5644 3.8332 35.3071 3.3116C34.6952 2.07075 33.4289 1.41047 32.0754 1.62647C31.7972 1.67084 31.4621 1.76267 31.3308 1.83046C31.1116 1.94366 31.0438 1.93396 30.5042 1.71229C28.2567 0.788974 25.9825 0.259048 23.4694 0.0731663C22.1348 -0.0256102 21.7537 -0.0249237 20.3749 0.0785729ZM18.4412 16.7369C17.9077 18.0245 17.0559 20.082 16.5484 21.3092C16.0409 22.5364 15.1373 24.7212 14.5404 26.1644C13.9435 27.6076 13.4552 28.8154 13.4552 28.8484C13.4552 28.8813 14.0759 28.8977 14.8345 28.8848L16.2139 28.8612L17.3178 26.2008C17.925 24.7376 18.8287 22.5557 19.3262 21.3521C19.8236 20.1485 20.2874 19.0286 20.3567 18.8634L20.4827 18.563L20.5718 18.7851C20.6208 18.9073 21.1714 20.2396 21.7954 21.7458C23.1166 24.9355 24.0507 27.1982 24.458 28.1961L24.7471 28.9041H26.1432H27.5392L26.9127 27.3808C26.5682 26.543 25.7347 24.5252 25.0606 22.8968C24.3864 21.2684 23.3248 18.7003 22.7013 17.1899L21.5677 14.4437L20.4895 14.4198L19.4112 14.3959L18.4412 16.7369ZM28.0682 21.6525V28.9041H29.2717H30.4751V21.6525V14.4008H29.2717H28.0682V21.6525Z" fill="black"/>
</svg>
