<svg width="128" height="128" viewBox="0 0 128 128" fill="none" xmlns="http://www.w3.org/2000/svg">
<path d="M51.2 92.8V35.2L89.6 64M64 0C55.5954 0 47.2731 1.65541 39.5083 4.87171C31.7434 8.08801 24.6881 12.8022 18.7452 18.7452C6.74284 30.7475 0 47.0261 0 64C0 80.9739 6.74284 97.2525 18.7452 109.255C24.6881 115.198 31.7434 119.912 39.5083 123.128C47.2731 126.345 55.5954 128 64 128C80.9739 128 97.2525 121.257 109.255 109.255C121.257 97.2525 128 80.9739 128 64C128 55.5954 126.345 47.2731 123.128 39.5083C119.912 31.7434 115.198 24.6881 109.255 18.7452C103.312 12.8022 96.2566 8.08801 88.4917 4.87171C80.7269 1.65541 72.4046 0 64 0Z" fill="white"/>
</svg>
