<svg width="40" height="36" viewBox="0 0 40 36" fill="none" xmlns="http://www.w3.org/2000/svg">
<path d="M24 0C19.7565 0 15.6869 1.68571 12.6863 4.68629C9.68571 7.68687 8 11.7565 8 16C8 20.2435 9.68571 24.3131 12.6863 27.3137C15.6869 30.3143 19.7565 32 24 32C28.2435 32 32.3131 30.3143 35.3137 27.3137C38.3143 24.3131 40 20.2435 40 16C40 11.7565 38.3143 7.68687 35.3137 4.68629C32.3131 1.68571 28.2435 0 24 0ZM5.86 7.64C2.16 10.68 0 15.22 0 20C0 24.2435 1.68571 28.3131 4.68629 31.3137C7.68687 34.3143 11.7565 36 16 36C17.28 36 18.54 35.84 19.76 35.54C16.24 34.76 13 33 10.34 30.58C6.44 28.5 4 24.42 4 20C4 19.4 4.06 18.82 4.14 18.22C4.06 17.48 4 16.74 4 16C4 13.12 4.64 10.26 5.86 7.64ZM32.18 8.16L35 11L22 24L14.42 16.42L17.26 13.58L22 18.34" fill="#8B006D"/>
</svg>
